HIERARCHY
ROOT Hips
{
	OFFSET -0.001795 -0.223333 0.028219
	CHANNELS 6 Xposition Yposition Zposition Zrotation Yrotation Xrotation 
	JOINT LeftUpLeg
	{
		OFFSET 0.069520 -0.091406 -0.006815
		CHANNELS 3 Zrotation Yrotation Xrotation
		JOINT LeftLeg
		{
			OFFSET 0.034277 -0.375199 -0.004496
			CHANNELS 3 Zrotation Yrotation Xrotation
			JOINT LeftFoot
			{
				OFFSET -0.013596 -0.397961 -0.043693
				CHANNELS 3 Zrotation Yrotation Xrotation
				JOINT LeftToe
				{
					OFFSET 0.026358 -0.055791 0.119288
					CHANNELS 3 Zrotation Yrotation Xrotation
					End Site
					{
						OFFSET 0.000000 0.000000 0.000000
					}
				}
			}
		}
	}
	JOINT RightUpLeg
	{
		OFFSET -0.067670 -0.090522 -0.004320
		CHANNELS 3 Zrotation Yrotation Xrotation
		JOINT RightLeg
		{
			OFFSET -0.038290 -0.382569 -0.008850
			CHANNELS 3 Zrotation Yrotation Xrotation
			JOINT RightFoot
			{
				OFFSET 0.015774 -0.398415 -0.042312
				CHANNELS 3 Zrotation Yrotation Xrotation
				JOINT RightToe
				{
					OFFSET -0.025372 -0.048144 0.123348
					CHANNELS 3 Zrotation Yrotation Xrotation
					End Site
					{
						OFFSET 0.000000 0.000000 0.000000
					}
				}
			}
		}
	}
	JOINT Spine
	{
		OFFSET -0.002533 0.108963 -0.026696
		CHANNELS 3 Zrotation Yrotation Xrotation
		JOINT Spine1
		{
			OFFSET 0.005487 0.135180 0.001092
			CHANNELS 3 Zrotation Yrotation Xrotation
			JOINT Spine2
			{
				OFFSET 0.001457 0.052922 0.025425
				CHANNELS 3 Zrotation Yrotation Xrotation
				JOINT Neck
				{
					OFFSET -0.002778 0.213870 -0.042857
					CHANNELS 3 Zrotation Yrotation Xrotation
					JOINT Head
					{
						OFFSET 0.005152 0.064970 0.051349
						CHANNELS 3 Zrotation Yrotation Xrotation
						End Site
						{
							OFFSET 0.000000 0.000000 0.000000
						}
					}
				}
				JOINT LeftShoulder
				{
					OFFSET 0.078845 0.121749 -0.034090
					CHANNELS 3 Zrotation Yrotation Xrotation
					JOINT LeftArm
					{
						OFFSET 0.090977 0.030469 -0.008868
						CHANNELS 3 Zrotation Yrotation Xrotation
						JOINT LeftForeArm
						{
							OFFSET 0.259612 -0.012772 -0.027456
							CHANNELS 3 Zrotation Yrotation Xrotation
							JOINT LeftHand
							{
								OFFSET 0.249234 0.008986 -0.001171
								CHANNELS 3 Zrotation Yrotation Xrotation
								End Site
								{
									OFFSET 0.000000 0.000000 0.000000
								}
							}
						}
					}
				}
				JOINT RightShoulder
				{
					OFFSET -0.081759 0.118833 -0.038615
					CHANNELS 3 Zrotation Yrotation Xrotation
					JOINT RightArm
					{
						OFFSET -0.096012 0.032551 -0.009143
						CHANNELS 3 Zrotation Yrotation Xrotation
						JOINT RightForeArm
						{
							OFFSET -0.253742 -0.013329 -0.021401
							CHANNELS 3 Zrotation Yrotation Xrotation
							JOINT RightHand
							{
								OFFSET -0.255298 0.007772 -0.005559
								CHANNELS 3 Zrotation Yrotation Xrotation
								End Site
								{
									OFFSET 0.000000 0.000000 0.000000
								}
							}
						}
					}
				}
			}
		}
	}
}
MOTION
Frames: 15
Frame Time: 0.050000
0.000000 0.913406 0.000000 -3.369202 13.230727 -0.547801 7.767726 -1.233963 -20.840828 -17.931326 4.921793 56.809824 10.628433 21.801013 8.411682 0.000000 0.000000 0.000000 5.977319 1.662376 -11.806096 -1.788772 0.514275 27.074173 -0.308863 1.016513 -5.331229 0.000000 0.000000 0.000000 7.634370 -1.666048 12.537573 1.595217 -1.460751 6.498170 -2.479544 -1.665970 -5.476005 4.013147 -1.937049 -6.881636 0.000000 0.000000 0.000000 -24.191842 -10.713469 1.839288 -31.036330 -9.523655 -0.274770 7.123099 -47.242886 -1.991114 0.000000 0.000000 0.000000 20.902823 -3.466445 -2.974564 39.746818 -14.683889 -7.625568 10.354107 34.079471 4.408351 0.000000 0.000000 0.000000 
0.029400 0.911924 0.070443 -3.365001 8.834339 -0.698465 11.434837 -0.729841 -27.577128 -17.682925 5.815290 48.112827 10.224797 21.193132 8.629113 0.000000 0.000000 0.000000 5.425249 0.739745 -5.347090 -4.406751 1.842392 25.599479 1.182088 7.778682 -8.264309 0.000000 0.000000 0.000000 6.634886 -1.878972 15.886638 0.730949 -0.388799 0.544101 -1.416618 2.523712 -2.229879 3.199550 -0.537849 -12.228534 0.000000 0.000000 0.000000 -25.055725 -7.525026 -0.792310 -32.345326 -4.400401 -1.517573 2.970537 -48.330269 -0.484195 0.000000 0.000000 0.000000 20.253290 -5.224793 -3.223947 41.905861 -11.385613 -7.451717 7.981291 37.216755 4.447164 0.000000 0.000000 0.000000 
0.061610 0.908419 0.144082 -3.648853 4.344489 -1.737697 11.670617 -0.319513 -32.863895 -8.808404 1.954534 38.278226 8.952038 18.720111 5.004142 0.000000 0.000000 0.000000 3.661936 -0.412538 2.647088 -3.365184 1.701663 22.449351 0.156720 5.394798 -8.585735 0.000000 0.000000 0.000000 5.780363 -1.718063 16.886759 0.202985 -0.029539 -1.462337 -1.672274 5.715237 2.029814 4.237333 -0.889025 -13.765104 0.000000 0.000000 0.000000 -25.528651 -4.601353 -2.784706 -33.605630 1.075762 -3.202296 -4.428705 -49.141787 2.787266 0.000000 0.000000 0.000000 22.337817 -2.794398 -1.472789 42.673568 -5.996889 -6.431431 3.224379 38.170047 3.156180 0.000000 0.000000 0.000000 
0.097411 0.908367 0.222583 -3.509069 0.887664 -1.688366 13.202545 0.557773 -33.286430 -5.661706 0.899765 22.253261 8.052035 17.735241 15.621873 0.000000 0.000000 0.000000 0.957175 -1.145447 10.099690 -5.772510 2.340402 18.873122 2.015488 10.077796 -6.378905 0.000000 0.000000 0.000000 4.311462 -1.375008 16.703610 -1.128593 0.560235 -0.719514 -0.500389 9.579325 1.822692 5.266800 -0.650248 -18.125648 0.000000 0.000000 0.000000 -24.925528 -3.973695 -3.683809 -35.080530 5.706723 -4.459376 -10.112609 -45.444019 4.707897 0.000000 0.000000 0.000000 21.759533 -3.446469 -1.350209 43.901060 -3.067769 -5.731798 3.740820 39.783031 3.748120 0.000000 0.000000 0.000000 
0.139091 0.907335 0.308513 -2.854826 -1.315904 -1.762442 13.556947 0.943828 -32.410384 -5.403955 0.876176 17.074942 7.513465 17.416702 28.141893 0.000000 0.000000 0.000000 -2.052750 -1.313421 16.895879 -7.478639 2.457771 15.069886 3.432652 8.417241 0.633018 0.000000 0.000000 0.000000 3.098938 -0.991568 14.648510 -2.571895 1.246522 0.485129 1.217533 10.334154 2.169278 4.835558 -0.736288 -16.427959 0.000000 0.000000 0.000000 -26.678725 -3.562889 -4.084722 -35.463762 9.878896 -5.643604 -7.904571 -41.268437 3.544614 0.000000 0.000000 0.000000 23.681639 -2.226050 -0.791592 43.253059 0.006078 -4.781418 2.804821 41.609018 3.562209 0.000000 0.000000 0.000000 
0.185240 0.908258 0.400366 -2.009258 -1.228476 -1.036634 11.086918 0.209492 -31.655401 -7.213614 1.548977 22.291464 8.786556 18.829199 26.842554 0.000000 0.000000 0.000000 -5.636758 -0.770943 18.634337 -7.384820 2.848461 18.706830 4.322227 5.728550 7.665092 0.000000 0.000000 0.000000 2.103010 -0.699710 11.771301 -2.844360 1.395309 3.024999 1.536680 11.088460 0.513363 6.244768 -1.351418 -17.353585 0.000000 0.000000 0.000000 -27.201382 -3.433975 -4.562471 -35.986888 11.478892 -6.012277 -8.668195 -38.169587 3.488570 0.000000 0.000000 0.000000 24.310696 -1.918770 -0.467559 44.598279 -0.135345 -4.867552 0.290024 42.789710 2.804739 0.000000 0.000000 0.000000 
0.231378 0.913374 0.489375 -1.323682 -0.461922 -0.592259 7.602007 -0.777658 -29.086814 -8.427868 2.098181 26.979781 10.270685 20.664916 21.598028 0.000000 0.000000 0.000000 -7.655950 -0.307049 14.787574 -8.273594 4.512923 30.124612 6.942633 4.222462 19.773324 0.000000 0.000000 0.000000 1.934023 -0.629517 10.706465 -1.824633 0.861214 2.661822 0.284921 10.933272 -0.155297 7.575461 -2.210169 -16.633935 0.000000 0.000000 0.000000 -27.219282 -4.211869 -4.326895 -37.075000 12.305783 -6.370018 -9.239403 -36.558769 3.474658 0.000000 0.000000 0.000000 24.761308 -3.134025 -1.093927 45.447841 -1.517335 -5.411088 2.556020 44.887687 3.986541 0.000000 0.000000 0.000000 
0.272231 0.926513 0.569300 -1.380952 1.045704 -0.447150 3.629288 -1.455715 -22.687005 -7.271393 1.498044 25.987408 10.188235 20.735790 14.530554 0.000000 0.000000 0.000000 -6.156863 -0.208246 6.776516 -8.120762 6.175765 45.103757 6.636236 1.643926 24.854973 0.000000 0.000000 0.000000 2.090698 -0.733539 11.874095 -1.586350 0.746344 1.140391 -0.278736 9.532274 -0.918290 7.260539 -1.777995 -18.159860 0.000000 0.000000 0.000000 -27.372415 -5.239408 -3.563125 -36.674528 10.800224 -5.837019 -9.144203 -33.580291 3.234568 0.000000 0.000000 0.000000 25.412712 -3.197593 -1.348063 45.159157 -2.490429 -5.623989 5.659637 43.074476 4.826442 0.000000 0.000000 0.000000 
0.307963 0.944804 0.642722 -2.039476 2.832111 -1.500878 0.820876 -1.207180 -13.803132 -4.583790 0.433562 21.445272 7.569530 16.949103 12.586956 0.000000 0.000000 0.000000 -3.367526 0.243097 -2.777768 -4.799827 4.860655 56.839134 2.326300 -3.389306 20.516141 0.000000 0.000000 0.000000 2.525352 -0.935582 13.818964 -0.630293 0.328969 -0.731052 -1.161793 6.994460 0.717241 6.801673 -1.324338 -20.318119 0.000000 0.000000 0.000000 -27.748038 -5.454580 -2.919260 -35.633516 7.991404 -5.091999 -8.602460 -34.728413 3.305743 0.000000 0.000000 0.000000 26.329384 -2.801249 -1.486259 44.452557 -1.950285 -5.465245 7.909936 42.108799 5.385189 0.000000 0.000000 0.000000 
0.341085 0.963310 0.714676 -2.391800 5.116024 -1.069626 -2.094437 -0.556495 -5.453686 -2.163039 -0.178766 15.026141 6.053722 14.717991 11.899745 0.000000 0.000000 0.000000 -0.433438 1.282263 -13.841296 -1.282857 1.641876 62.251779 -0.701521 -6.249697 12.897989 0.000000 0.000000 0.000000 3.255713 -1.071771 13.789230 -0.004752 0.058990 -1.208214 -1.610708 3.779896 0.145813 6.327277 -1.278188 -20.179004 0.000000 0.000000 0.000000 -26.780327 -6.525506 -1.402159 -36.446830 5.751937 -4.783224 -7.419123 -37.771617 3.329965 0.000000 0.000000 0.000000 25.993416 -2.567326 -1.990943 44.491210 -1.914324 -5.211978 7.047053 40.791251 4.635102 0.000000 0.000000 0.000000 
0.373611 0.973843 0.787294 -3.527691 9.399927 -1.659112 -2.928055 0.422396 3.467421 -0.181940 -0.408088 9.320726 3.937762 11.416472 10.528960 0.000000 0.000000 0.000000 1.292658 2.193323 -23.506629 2.719714 -2.862448 57.933215 -3.040639 -10.194582 12.813262 0.000000 0.000000 0.000000 4.382840 -1.380812 14.597653 1.704752 -0.630295 -2.463580 -2.724348 0.170526 0.905658 6.231344 -1.376714 -20.058492 0.000000 0.000000 0.000000 -26.767791 -7.035057 -0.639250 -35.287968 3.278117 -4.103224 -6.011217 -42.662070 3.347421 0.000000 0.000000 0.000000 25.173929 -2.914235 -2.494114 44.617704 -4.133898 -5.912930 7.476353 41.973805 4.854364 0.000000 0.000000 0.000000 
0.406371 0.971849 0.862527 -4.395178 12.977401 -1.811708 -3.024317 1.072419 11.274676 2.596247 -0.556406 4.830657 0.762707 6.444156 9.977951 0.000000 0.000000 0.000000 1.993645 2.468313 -29.452733 5.203231 -4.169922 45.935329 -1.307568 -4.335676 3.789015 0.000000 0.000000 0.000000 4.696224 -1.549591 14.962966 4.057487 -1.724182 -2.185469 -3.908016 -1.945142 0.347964 6.924314 -1.736819 -20.061436 0.000000 0.000000 0.000000 -23.980261 -7.582350 -0.041192 -37.043081 -0.400810 -3.291624 -1.690788 -49.150991 1.781793 0.000000 0.000000 0.000000 22.100844 -3.501124 -2.653207 46.837608 -5.767826 -6.626343 4.774483 43.535175 4.072231 0.000000 0.000000 0.000000 
0.439853 0.959124 0.944209 -5.021261 15.279184 -1.682400 -3.594938 1.512329 18.617723 4.416395 -0.503238 1.368557 0.663213 6.583906 10.553108 0.000000 0.000000 0.000000 3.459370 2.771742 -32.275274 5.063010 -2.428429 29.083981 -0.207590 -2.388404 6.813670 0.000000 0.000000 0.000000 4.589569 -1.493181 14.191932 5.692258 -2.550647 -1.734300 -3.414291 -5.469072 0.098985 5.601235 -1.285308 -19.928872 0.000000 0.000000 0.000000 -23.553394 -6.572113 0.266558 -37.982754 -2.498584 -3.050385 4.755863 -55.797582 -0.944407 0.000000 0.000000 0.000000 19.059832 -2.948899 -2.746721 46.741352 -7.845934 -7.107940 6.523787 46.131928 4.696443 0.000000 0.000000 0.000000 
0.474051 0.940758 1.037007 -6.089254 15.538180 -0.019852 -3.205319 1.622582 24.060356 5.097212 -0.395192 -0.853755 0.584964 6.228989 10.231106 0.000000 0.000000 0.000000 6.107811 3.516842 -33.398319 3.030425 -0.791174 17.109427 -0.094014 -4.448521 18.623392 0.000000 0.000000 0.000000 5.972580 -1.236766 10.441450 7.082103 -2.934438 -3.565736 -5.058195 -6.412097 1.833360 5.418823 -1.121745 -20.771815 0.000000 0.000000 0.000000 -23.928002 -4.799834 -0.666494 -36.455144 -0.930549 -3.463364 4.150323 -62.681442 -0.631316 0.000000 0.000000 0.000000 21.418032 -3.714812 -3.413516 41.976631 -9.244269 -6.871521 9.889328 47.697503 6.327767 0.000000 0.000000 0.000000 
0.508121 0.921987 1.142684 -6.345358 17.178035 -0.665891 -0.244975 0.696275 26.718115 3.454992 -0.773048 6.113387 -2.824248 2.945209 14.320702 0.000000 0.000000 0.000000 7.612349 3.696746 -32.197750 2.432333 -0.950053 21.485006 -3.763944 -10.260519 18.689043 0.000000 0.000000 0.000000 7.563096 -0.901220 6.468990 7.411807 -3.610759 -0.364318 -6.420514 -6.767616 1.091636 5.274181 -1.431527 -17.090511 0.000000 0.000000 0.000000 -22.977807 -5.203216 -0.587591 -36.899361 -0.520948 -3.504260 0.160753 -66.662091 1.710205 0.000000 0.000000 0.000000 22.183623 -3.656554 -3.303915 42.492905 -9.734327 -7.094917 5.563686 48.958623 4.704942 0.000000 0.000000 0.000000 
